<svg xmlns="http://www.w3.org/2000/svg" xmlns:xlink="http://www.w3.org/1999/xlink" width="500" zoomAndPan="magnify" viewBox="0 0 375 374.999991" height="500" preserveAspectRatio="xMidYMid meet" version="1.0"><defs><g/></defs><rect x="-37.5" width="450" fill="#ffffff" y="-37.499999" height="449.999989" fill-opacity="1"/><rect x="-37.5" width="450" fill="#f1efe7" y="-37.499999" height="449.999989" fill-opacity="1"/><g fill="#000000" fill-opacity="1"><g transform="translate(99.392294, 196.124987)"><g><path d="M 1.921875 -26.40625 L 11.546875 -26.40625 C 14.234375 -26.40625 16.410156 -25.707031 18.078125 -24.3125 C 19.742188 -22.925781 20.578125 -20.910156 20.578125 -18.265625 C 20.578125 -15.617188 19.734375 -13.546875 18.046875 -12.046875 C 16.359375 -10.546875 14.191406 -9.796875 11.546875 -9.796875 L 7.9375 -9.796875 L 7.9375 0 L 1.921875 0 Z M 7.9375 -14.59375 L 9.625 -14.59375 C 10.96875 -14.59375 12.070312 -14.863281 12.9375 -15.40625 C 13.800781 -15.945312 14.234375 -16.835938 14.234375 -18.078125 C 14.234375 -19.335938 13.800781 -20.238281 12.9375 -20.78125 C 12.070312 -21.320312 10.96875 -21.59375 9.625 -21.59375 L 7.9375 -21.59375 Z M 7.9375 -14.59375 "/></g></g></g><g fill="#000000" fill-opacity="1"><g transform="translate(117.691053, 196.124987)"><g><path d="M 1.921875 0 L 1.921875 -16.421875 L 7.578125 -16.421875 L 7.578125 -14.046875 L 7.640625 -14.046875 C 7.691406 -14.128906 7.765625 -14.234375 7.859375 -14.359375 C 7.953125 -14.492188 8.15625 -14.71875 8.46875 -15.03125 C 8.789062 -15.351562 9.132812 -15.640625 9.5 -15.890625 C 9.863281 -16.148438 10.332031 -16.378906 10.90625 -16.578125 C 11.488281 -16.785156 12.078125 -16.890625 12.671875 -16.890625 C 13.285156 -16.890625 13.890625 -16.804688 14.484375 -16.640625 C 15.085938 -16.472656 15.53125 -16.300781 15.8125 -16.125 L 16.25 -15.875 L 13.890625 -11.078125 C 13.179688 -11.671875 12.195312 -11.96875 10.9375 -11.96875 C 10.257812 -11.96875 9.675781 -11.816406 9.1875 -11.515625 C 8.695312 -11.222656 8.347656 -10.863281 8.140625 -10.4375 C 7.941406 -10.007812 7.796875 -9.644531 7.703125 -9.34375 C 7.617188 -9.039062 7.578125 -8.804688 7.578125 -8.640625 L 7.578125 0 Z M 1.921875 0 "/></g></g></g><g fill="#000000" fill-opacity="1"><g transform="translate(130.615139, 196.124987)"><g><path d="M 3.46875 -1.953125 C 1.644531 -3.578125 0.734375 -5.65625 0.734375 -8.1875 C 0.734375 -10.726562 1.679688 -12.8125 3.578125 -14.4375 C 5.484375 -16.070312 7.832031 -16.890625 10.625 -16.890625 C 13.375 -16.890625 15.691406 -16.066406 17.578125 -14.421875 C 19.472656 -12.785156 20.421875 -10.707031 20.421875 -8.1875 C 20.421875 -5.675781 19.492188 -3.601562 17.640625 -1.96875 C 15.796875 -0.332031 13.457031 0.484375 10.625 0.484375 C 7.675781 0.484375 5.289062 -0.328125 3.46875 -1.953125 Z M 7.84375 -10.96875 C 7.113281 -10.25 6.75 -9.320312 6.75 -8.1875 C 6.75 -7.0625 7.097656 -6.140625 7.796875 -5.421875 C 8.503906 -4.710938 9.4375 -4.359375 10.59375 -4.359375 C 11.695312 -4.359375 12.609375 -4.71875 13.328125 -5.4375 C 14.046875 -6.164062 14.40625 -7.082031 14.40625 -8.1875 C 14.40625 -9.320312 14.035156 -10.25 13.296875 -10.96875 C 12.554688 -11.695312 11.65625 -12.0625 10.59375 -12.0625 C 9.5 -12.0625 8.582031 -11.695312 7.84375 -10.96875 Z M 7.84375 -10.96875 "/></g></g></g><g fill="#000000" fill-opacity="1"><g transform="translate(148.753944, 196.124987)"><g><path d="M 2.875 -16.421875 L 2.875 -19.90625 C 2.894531 -22.351562 3.46875 -24.3125 4.59375 -25.78125 C 5.726562 -27.257812 7.300781 -28 9.3125 -28 C 10.164062 -28 10.976562 -27.875 11.75 -27.625 C 12.53125 -27.382812 13.09375 -27.132812 13.4375 -26.875 L 13.984375 -26.53125 L 12 -22.53125 C 11.488281 -22.820312 10.921875 -22.96875 10.296875 -22.96875 C 9.597656 -22.96875 9.128906 -22.726562 8.890625 -22.25 C 8.660156 -21.769531 8.546875 -20.9375 8.546875 -19.75 L 8.546875 -16.421875 L 12.3125 -16.421875 L 12.3125 -12.09375 L 8.546875 -12.09375 L 8.546875 0 L 2.875 0 L 2.875 -12.09375 L 0.515625 -12.09375 L 0.515625 -16.421875 Z M 2.875 -16.421875 "/></g></g></g><g fill="#000000" fill-opacity="1"><g transform="translate(157.742991, 196.124987)"><g><path d="M 5.5625 -6.84375 C 6.59375 -6.84375 7.460938 -6.484375 8.171875 -5.765625 C 8.890625 -5.054688 9.25 -4.191406 9.25 -3.171875 C 9.25 -2.160156 8.890625 -1.296875 8.171875 -0.578125 C 7.460938 0.128906 6.59375 0.484375 5.5625 0.484375 C 4.5625 0.484375 3.703125 0.128906 2.984375 -0.578125 C 2.273438 -1.296875 1.921875 -2.160156 1.921875 -3.171875 C 1.921875 -4.191406 2.273438 -5.054688 2.984375 -5.765625 C 3.703125 -6.484375 4.5625 -6.84375 5.5625 -6.84375 Z M 5.5625 -6.84375 "/></g></g></g><g fill="#000000" fill-opacity="1"><g transform="translate(165.900248, 196.124987)"><g/></g></g><g fill="#000000" fill-opacity="1"><g transform="translate(171.626104, 196.124987)"><g><path d="M 11.640625 -26.875 C 13.078125 -26.875 14.476562 -26.664062 15.84375 -26.25 C 17.207031 -25.832031 18.21875 -25.425781 18.875 -25.03125 L 19.84375 -24.390625 L 17.40625 -19.578125 C 17.21875 -19.710938 16.953125 -19.878906 16.609375 -20.078125 C 16.265625 -20.285156 15.625 -20.554688 14.6875 -20.890625 C 13.75 -21.234375 12.875 -21.40625 12.0625 -21.40625 C 11.0625 -21.40625 10.285156 -21.191406 9.734375 -20.765625 C 9.191406 -20.335938 8.921875 -19.765625 8.921875 -19.046875 C 8.921875 -18.679688 9.050781 -18.34375 9.3125 -18.03125 C 9.570312 -17.71875 10.007812 -17.382812 10.625 -17.03125 C 11.238281 -16.6875 11.78125 -16.40625 12.25 -16.1875 C 12.71875 -15.976562 13.445312 -15.660156 14.4375 -15.234375 C 16.132812 -14.503906 17.585938 -13.515625 18.796875 -12.265625 C 20.003906 -11.023438 20.609375 -9.613281 20.609375 -8.03125 C 20.609375 -6.519531 20.332031 -5.195312 19.78125 -4.0625 C 19.238281 -2.9375 18.492188 -2.050781 17.546875 -1.40625 C 16.597656 -0.769531 15.546875 -0.296875 14.390625 0.015625 C 13.242188 0.328125 12 0.484375 10.65625 0.484375 C 9.5 0.484375 8.363281 0.363281 7.25 0.125 C 6.144531 -0.101562 5.21875 -0.394531 4.46875 -0.75 C 3.726562 -1.101562 3.054688 -1.445312 2.453125 -1.78125 C 1.859375 -2.125 1.425781 -2.414062 1.15625 -2.65625 L 0.734375 -3.015625 L 3.75 -8.0625 C 4 -7.851562 4.347656 -7.582031 4.796875 -7.25 C 5.242188 -6.914062 6.035156 -6.472656 7.171875 -5.921875 C 8.316406 -5.367188 9.328125 -5.09375 10.203125 -5.09375 C 12.742188 -5.09375 14.015625 -5.957031 14.015625 -7.6875 C 14.015625 -8.039062 13.921875 -8.375 13.734375 -8.6875 C 13.554688 -9 13.238281 -9.304688 12.78125 -9.609375 C 12.320312 -9.921875 11.914062 -10.164062 11.5625 -10.34375 C 11.21875 -10.53125 10.644531 -10.8125 9.84375 -11.1875 C 9.039062 -11.5625 8.445312 -11.84375 8.0625 -12.03125 C 6.457031 -12.820312 5.21875 -13.804688 4.34375 -14.984375 C 3.476562 -16.171875 3.046875 -17.445312 3.046875 -18.8125 C 3.046875 -21.1875 3.914062 -23.125 5.65625 -24.625 C 7.40625 -26.125 9.398438 -26.875 11.640625 -26.875 Z M 11.640625 -26.875 "/></g></g></g><g fill="#000000" fill-opacity="1"><g transform="translate(190.116826, 196.124987)"><g><path d="M 18.53125 -7.421875 L 6.625 -7.421875 C 6.625 -6.273438 6.992188 -5.421875 7.734375 -4.859375 C 8.484375 -4.304688 9.296875 -4.03125 10.171875 -4.03125 C 11.085938 -4.03125 11.8125 -4.148438 12.34375 -4.390625 C 12.882812 -4.640625 13.492188 -5.128906 14.171875 -5.859375 L 18.265625 -3.8125 C 16.566406 -0.945312 13.734375 0.484375 9.765625 0.484375 C 7.285156 0.484375 5.160156 -0.363281 3.390625 -2.0625 C 1.617188 -3.757812 0.734375 -5.800781 0.734375 -8.1875 C 0.734375 -10.582031 1.617188 -12.628906 3.390625 -14.328125 C 5.160156 -16.035156 7.285156 -16.890625 9.765625 -16.890625 C 12.359375 -16.890625 14.472656 -16.140625 16.109375 -14.640625 C 17.742188 -13.140625 18.5625 -10.988281 18.5625 -8.1875 C 18.5625 -7.800781 18.550781 -7.546875 18.53125 -7.421875 Z M 6.78125 -10.5625 L 13.03125 -10.5625 C 12.894531 -11.414062 12.554688 -12.070312 12.015625 -12.53125 C 11.472656 -12.988281 10.773438 -13.21875 9.921875 -13.21875 C 8.984375 -13.21875 8.234375 -12.972656 7.671875 -12.484375 C 7.117188 -11.992188 6.820312 -11.351562 6.78125 -10.5625 Z M 6.78125 -10.5625 "/></g></g></g><g fill="#000000" fill-opacity="1"><g transform="translate(206.400085, 196.124987)"><g><path d="M 10.65625 -12.25 C 9.59375 -12.25 8.675781 -11.851562 7.90625 -11.0625 C 7.132812 -10.28125 6.75 -9.332031 6.75 -8.21875 C 6.75 -7.09375 7.132812 -6.132812 7.90625 -5.34375 C 8.675781 -4.550781 9.59375 -4.15625 10.65625 -4.15625 C 11.164062 -4.15625 11.648438 -4.21875 12.109375 -4.34375 C 12.566406 -4.476562 12.90625 -4.609375 13.125 -4.734375 L 13.40625 -4.921875 L 15.328125 -0.984375 C 15.179688 -0.878906 14.972656 -0.75 14.703125 -0.59375 C 14.429688 -0.4375 13.820312 -0.21875 12.875 0.0625 C 11.925781 0.34375 10.910156 0.484375 9.828125 0.484375 C 7.410156 0.484375 5.289062 -0.363281 3.46875 -2.0625 C 1.644531 -3.757812 0.734375 -5.789062 0.734375 -8.15625 C 0.734375 -10.550781 1.644531 -12.601562 3.46875 -14.3125 C 5.289062 -16.03125 7.410156 -16.890625 9.828125 -16.890625 C 10.910156 -16.890625 11.910156 -16.757812 12.828125 -16.5 C 13.742188 -16.25 14.394531 -16 14.78125 -15.75 L 15.328125 -15.359375 L 13.40625 -11.484375 C 12.707031 -11.992188 11.789062 -12.25 10.65625 -12.25 Z M 10.65625 -12.25 "/></g></g></g><g fill="#000000" fill-opacity="1"><g transform="translate(219.100222, 196.124987)"><g><path d="M 7.265625 -16.421875 L 7.265625 -8.609375 C 7.265625 -6.984375 7.507812 -5.828125 8 -5.140625 C 8.488281 -4.460938 9.316406 -4.125 10.484375 -4.125 C 11.660156 -4.125 12.492188 -4.460938 12.984375 -5.140625 C 13.484375 -5.828125 13.734375 -6.984375 13.734375 -8.609375 L 13.734375 -16.421875 L 19.390625 -16.421875 L 19.390625 -7.234375 C 19.390625 -4.503906 18.679688 -2.535156 17.265625 -1.328125 C 15.847656 -0.117188 13.59375 0.484375 10.5 0.484375 C 7.40625 0.484375 5.144531 -0.117188 3.71875 -1.328125 C 2.300781 -2.535156 1.59375 -4.503906 1.59375 -7.234375 L 1.59375 -16.421875 Z M 7.265625 -16.421875 "/></g></g></g><g fill="#000000" fill-opacity="1"><g transform="translate(237.07906, 196.124987)"><g><path d="M 1.921875 0 L 1.921875 -27.515625 L 7.578125 -27.515625 L 7.578125 0 Z M 1.921875 0 "/></g></g></g><g fill="#000000" fill-opacity="1"><g transform="translate(243.572724, 196.124987)"><g><path d="M 18.53125 -7.421875 L 6.625 -7.421875 C 6.625 -6.273438 6.992188 -5.421875 7.734375 -4.859375 C 8.484375 -4.304688 9.296875 -4.03125 10.171875 -4.03125 C 11.085938 -4.03125 11.8125 -4.148438 12.34375 -4.390625 C 12.882812 -4.640625 13.492188 -5.128906 14.171875 -5.859375 L 18.265625 -3.8125 C 16.566406 -0.945312 13.734375 0.484375 9.765625 0.484375 C 7.285156 0.484375 5.160156 -0.363281 3.390625 -2.0625 C 1.617188 -3.757812 0.734375 -5.800781 0.734375 -8.1875 C 0.734375 -10.582031 1.617188 -12.628906 3.390625 -14.328125 C 5.160156 -16.035156 7.285156 -16.890625 9.765625 -16.890625 C 12.359375 -16.890625 14.472656 -16.140625 16.109375 -14.640625 C 17.742188 -13.140625 18.5625 -10.988281 18.5625 -8.1875 C 18.5625 -7.800781 18.550781 -7.546875 18.53125 -7.421875 Z M 6.78125 -10.5625 L 13.03125 -10.5625 C 12.894531 -11.414062 12.554688 -12.070312 12.015625 -12.53125 C 11.472656 -12.988281 10.773438 -13.21875 9.921875 -13.21875 C 8.984375 -13.21875 8.234375 -12.972656 7.671875 -12.484375 C 7.117188 -11.992188 6.820312 -11.351562 6.78125 -10.5625 Z M 6.78125 -10.5625 "/></g></g></g><g fill="#000000" fill-opacity="1"><g transform="translate(259.855983, 196.124987)"><g><path d="M 9.0625 -16.890625 C 10 -16.890625 10.925781 -16.78125 11.84375 -16.5625 C 12.757812 -16.351562 13.441406 -16.144531 13.890625 -15.9375 L 14.5625 -15.609375 L 12.703125 -11.90625 C 11.421875 -12.582031 10.207031 -12.921875 9.0625 -12.921875 C 8.414062 -12.921875 7.957031 -12.851562 7.6875 -12.71875 C 7.425781 -12.582031 7.296875 -12.320312 7.296875 -11.9375 C 7.296875 -11.851562 7.304688 -11.765625 7.328125 -11.671875 C 7.347656 -11.585938 7.390625 -11.507812 7.453125 -11.4375 C 7.515625 -11.363281 7.570312 -11.300781 7.625 -11.25 C 7.6875 -11.195312 7.78125 -11.132812 7.90625 -11.0625 C 8.03125 -11 8.128906 -10.953125 8.203125 -10.921875 C 8.273438 -10.890625 8.394531 -10.84375 8.5625 -10.78125 C 8.738281 -10.71875 8.867188 -10.671875 8.953125 -10.640625 C 9.046875 -10.609375 9.191406 -10.5625 9.390625 -10.5 C 9.597656 -10.4375 9.753906 -10.394531 9.859375 -10.375 C 10.515625 -10.175781 11.085938 -9.957031 11.578125 -9.71875 C 12.066406 -9.488281 12.582031 -9.171875 13.125 -8.765625 C 13.675781 -8.359375 14.097656 -7.84375 14.390625 -7.21875 C 14.691406 -6.601562 14.84375 -5.90625 14.84375 -5.125 C 14.84375 -1.382812 12.253906 0.484375 7.078125 0.484375 C 5.898438 0.484375 4.78125 0.300781 3.71875 -0.0625 C 2.664062 -0.425781 1.90625 -0.789062 1.4375 -1.15625 L 0.734375 -1.734375 L 3.046875 -5.59375 C 3.210938 -5.445312 3.429688 -5.269531 3.703125 -5.0625 C 3.984375 -4.863281 4.484375 -4.585938 5.203125 -4.234375 C 5.929688 -3.890625 6.566406 -3.71875 7.109375 -3.71875 C 8.273438 -3.71875 8.859375 -4.109375 8.859375 -4.890625 C 8.859375 -5.253906 8.707031 -5.535156 8.40625 -5.734375 C 8.113281 -5.941406 7.609375 -6.171875 6.890625 -6.421875 C 6.179688 -6.679688 5.625 -6.921875 5.21875 -7.140625 C 4.195312 -7.671875 3.382812 -8.269531 2.78125 -8.9375 C 2.1875 -9.613281 1.890625 -10.503906 1.890625 -11.609375 C 1.890625 -13.273438 2.535156 -14.570312 3.828125 -15.5 C 5.117188 -16.425781 6.863281 -16.890625 9.0625 -16.890625 Z M 9.0625 -16.890625 "/></g></g></g></svg>