<?xml version="1.0" encoding="UTF-8"?>
<svg version="1.1" xmlns="http://www.w3.org/2000/svg" width="146" height="43">
<path d="M0 0 C1.98 0 3.96 0 6 0 C6 2.64 6 5.28 6 8 C7.093125 7.814375 8.18625 7.62875 9.3125 7.4375 C13 7 13 7 16 8 C16.66 7.67 17.32 7.34 18 7 C19.99960012 6.960008 22.00047242 6.95653201 24 7 C24.35729936 8.32711192 24.68325425 9.66262906 25 11 C25.4021875 12.485 25.4021875 12.485 25.8125 14 C26 17 26 17 24.453125 19.16796875 C21.1487771 21.63570628 19.01872542 21.43695377 14.9375 21.3125 C13.70902344 21.28800781 12.48054688 21.26351562 11.21484375 21.23828125 C8 21 8 21 5 20 C2.95501575 20.08780403 0.91255052 20.24241538 -1.125 20.4375 C-15.08773292 21.63742236 -15.08773292 21.63742236 -20 20 C-21.670625 20.2475 -21.670625 20.2475 -23.375 20.5 C-26.81354461 20.97428202 -28.68515815 20.66296837 -32 20 C-33.155 20.185625 -34.31 20.37125 -35.5 20.5625 C-39.15470889 21.01933861 -40.78135607 20.6580893 -44 19 C-43.67 17.02 -43.34 15.04 -43 13 C-41.68 13 -40.36 13 -39 13 C-39.66 12.443125 -40.32 11.88625 -41 11.3125 C-43 9 -43 9 -43.4375 6.4375 C-42.9150717 3.52682803 -42.31651943 2.78351496 -40 1 C-37.73828125 0.70703125 -37.73828125 0.70703125 -35.3125 0.8125 C-34.10013672 0.85310547 -34.10013672 0.85310547 -32.86328125 0.89453125 C-32.24839844 0.92933594 -31.63351563 0.96414063 -31 1 C-30.41015625 2.890625 -30.41015625 2.890625 -30 5 C-31.4375 6.75 -31.4375 6.75 -33 8 C-29.91290084 8.08074428 -29.91290084 8.08074428 -26.5625 7.4375 C-23.28695611 7.03524022 -22.03000244 7.24249939 -19 8 C-17.865625 7.835 -16.73125 7.67 -15.5625 7.5 C-12.26471697 7.03715326 -10.16934429 7.13563337 -7 8 C-6.505 10.97 -6.505 10.97 -6 14 C-5.67 14 -5.34 14 -5 14 C-4.67 12.02 -4.34 10.04 -4 8 C-2.68 8 -1.36 8 0 8 C0 5.36 0 2.72 0 0 Z M-14 12 C-14 13.32 -14 14.64 -14 16 C-13.34 15.67 -12.68 15.34 -12 15 C-12.33 14.01 -12.66 13.02 -13 12 C-13.33 12 -13.66 12 -14 12 Z " fill="#000000" transform="translate(108,11)"/>
<path d="M0 0 C0.94875 0.04125 1.8975 0.0825 2.875 0.125 C3.37 1.61 3.37 1.61 3.875 3.125 C1.9375 5.8125 1.9375 5.8125 -0.125 8.125 C0.865 8.125 1.855 8.125 2.875 8.125 C2.875 9.445 2.875 10.765 2.875 12.125 C1.885 12.125 0.895 12.125 -0.125 12.125 C0.37 13.115 0.37 13.115 0.875 14.125 C2.525 14.125 4.175 14.125 5.875 14.125 C6.5 16.5 6.5 16.5 6.875 19.125 C6.215 19.785 5.555 20.445 4.875 21.125 C2.80859375 21.06640625 2.80859375 21.06640625 0.3125 20.6875 C-3.31948229 20.21513236 -6.33072597 20.1952333 -9.9375 20.8125 C-13.384676 21.28923711 -13.94802365 21.22251758 -17.1875 19.4375 C-19.125 17.125 -19.125 17.125 -19.125 13.125 C-19.785 13.125 -20.445 13.125 -21.125 13.125 C-21.125 15.435 -21.125 17.745 -21.125 20.125 C-23.105 20.125 -25.085 20.125 -27.125 20.125 C-27.125 17.815 -27.125 15.505 -27.125 13.125 C-29.105 13.455 -31.085 13.785 -33.125 14.125 C-33.125 16.105 -33.125 18.085 -33.125 20.125 C-35.105 20.125 -37.085 20.125 -39.125 20.125 C-39.125 13.855 -39.125 7.585 -39.125 1.125 C-28.5 0.875 -28.5 0.875 -25.125 3.125 C-24.9375 5.75 -24.9375 5.75 -25.125 8.125 C-24.55652344 8.0528125 -23.98804688 7.980625 -23.40234375 7.90625 C-10.61271238 6.36893204 -10.61271238 6.36893204 -5.125 8.125 C-5.16625 7.17625 -5.2075 6.2275 -5.25 5.25 C-5.0773465 0.9336624 -4.3163376 0.1726535 0 0 Z M-33.125 6.125 C-32.795 7.115 -32.465 8.105 -32.125 9.125 C-31.795 8.135 -31.465 7.145 -31.125 6.125 C-31.785 6.125 -32.445 6.125 -33.125 6.125 Z M-13.125 13.125 C-13.125 13.785 -13.125 14.445 -13.125 15.125 C-12.135 15.125 -11.145 15.125 -10.125 15.125 C-10.125 14.465 -10.125 13.805 -10.125 13.125 C-11.115 13.125 -12.105 13.125 -13.125 13.125 Z " fill="#000000" transform="translate(55.125,10.875)"/>
</svg>
